<svg width="30" height="30" viewBox="0 0 30 30" fill="none" xmlns="http://www.w3.org/2000/svg">
<g clip-path="url(#clip0_142_110)">
<path d="M7.5 29.6625L3.75 27.01V9.26L7.5 10.9588V29.6625ZM10 11.0938V30L26.25 27.5575V8.75L10 11.0938ZM17.4538 1.25C14.8325 1.25 12.5063 3.75625 12.5013 6.5825L12.5 8.68625C12.5 9.0675 12.8412 9.36125 13.2187 9.30375C13.5237 9.2575 13.75 8.995 13.75 8.68625V6.585C13.7538 4.4475 15.52 2.5 17.4538 2.5C18.125 2.5 18.7238 2.74375 19.1838 3.205C19.7113 3.73375 20.0013 4.49875 20 5.36375V7.5475C20 7.92875 20.3413 8.2225 20.7188 8.165C21.0225 8.11875 21.2475 7.8575 21.2475 7.55L21.25 5.36375C21.2525 2.98375 19.6 1.25 17.4538 1.25V1.25ZM9.46625 8.74375C9.7725 8.6975 10 8.435 10 8.125V5.335C10.0025 3.1975 11.77 1.25 13.7038 1.25L13.9062 1.26875C14.3637 0.915 14.8625 0.6275 15.3912 0.415C14.885 0.15625 14.3188 0 13.7038 0C11.0838 0 8.75625 2.50625 8.75125 5.3325V8.12625C8.75125 8.50875 9.09125 8.79875 9.46625 8.74375V8.74375Z" fill="#4b4b4b"/>
</g>
<defs>
<clipPath id="clip0_142_110">
<rect width="30" height="30" fill="#4b4b4b"/>
</clipPath>
</defs>
</svg>